<svg xmlns="http://www.w3.org/2000/svg" width="16" height="16" viewBox="0 0 16 16"><path d="M 0,0 0,0.5 0,7 7,7 7,4.0234375 l 3.900391,0 c 0.13395,0 0.449887,0.099059 0.685547,0.3183594 C 11.821608,4.5613969 12,4.8693312 12,5.3320312 L 12,6.0722656 12,7.1210938 10.882812,6.0371094 10.1875,6.7558594 12.5,9 14.814453,6.7558594 14.117188,6.0371094 13,7.1210938 13,6.0722656 13,5.3320312 c 0,-0.7389 -0.319272,-1.3358031 -0.732422,-1.7207031 -0.41314,-0.385 -0.897427,-0.5878906 -1.367187,-0.5878906 L 7,3.0234375 7,0 z M 12.5,9 9,9 l 0,0.5 0,2.490234 -3.9003906,0 c -0.13396,0 -0.4479338,-0.100712 -0.6835938,-0.320312 C 4.1803556,11.450422 4,11.142288 4,10.679688 L 4,9.9394531 4,8.890625 5.1171875,9.9746094 5.8144531,9.2578125 3.5,7.0117188 1.1875,9.2578125 1.8847656,9.9746094 3,8.890625 3,9.9394531 3,10.679688 c 0,0.7389 0.321235,1.337756 0.734375,1.722656 0.41315,0.3849 0.8954644,0.58789 1.3652344,0.58789 L 9,12.990234 9,16 l 7,0 0,-7 z" color="#000" font-family="sans-serif" font-weight="400" overflow="visible" style="text-indent:0;text-align:start;line-height:normal;text-transform:none;block-progression:tb"/></svg>